# xmcd
#
# Track frame offsets: 
#        150
#        20145
#        31534
#        48043
#        63784
#        79913
#        95046
#        110479
#        125076
#        138703
#        156522
#        165755
#        183430
#        205740
#        229177
#        253040
#        272917
#        295373
#
# Disc length: 4228 seconds
#
# Revision: 0
# Processed by: cddbd v1.5.1PL0 Copyright (c) Steve Scherf et al.
# Submitted via: ExactAudioCopy v0.95b2
#
DISCID=01108212
DTITLE=古旋 - 古旋-往事只能回味-A
DYEAR=2003
DGENRE=Blues
TTITLE0=眼泪为谁流
TTITLE1=沉默的夜空
TTITLE2=走远路
TTITLE3=往事只能回味
TTITLE4=半梦半醒之间
TTITLE5=人生舞台
TTITLE6=一杯咖啡
TTITLE7=相逢在小树林
TTITLE8=丑小鸭
TTITLE9=沿着湖畔找到你
TTITLE10='馄饨
TTITLE11=不会再回头
TTITLE12=梅花三弄
TTITLE13=牵手
TTITLE14=女人花
TTITLE15=今宵多珍重
TTITLE16=你怎么舍得我难过
TTITLE17=城里的月光
EXTD=
EXTT0=
EXTT1=
EXTT2=
EXTT3=
EXTT4=
EXTT5=
EXTT6=
EXTT7=
EXTT8=
EXTT9=
EXTT10=
EXTT11=
EXTT12=
EXTT13=
EXTT14=
EXTT15=
EXTT16=
EXTT17=
PLAYORDER=
